<svg width="22" height="28" viewBox="0 0 22 28" fill="none" xmlns="http://www.w3.org/2000/svg">
<path d="M11 21C16.5228 21 21 16.5228 21 11C21 5.47715 16.5228 1 11 1C5.47715 1 1 5.47715 1 11C1 16.5228 5.47715 21 11 21Z" stroke="white" stroke-width="2" stroke-linecap="round" stroke-linejoin="round"/>
<path d="M7.21 21.0066L6 27L11 25.0263L16 27L14.79 21" fill="white"/>
<path d="M7.21 21.0066L6 27L11 25.0263L16 27L14.79 21" stroke="white" stroke-width="2" stroke-linecap="round" stroke-linejoin="round"/>
<path d="M11.276 13.264H14.524V15H8.42V13.418C9.428 12.7273 10.3147 11.962 11.08 11.122C11.8547 10.282 12.242 9.54 12.242 8.896C12.242 8.504 12.1253 8.196 11.892 7.972C11.6587 7.73867 11.304 7.622 10.828 7.622C10.0347 7.622 9.28333 7.916 8.574 8.504V6.53C8.882 6.306 9.28333 6.11467 9.778 5.956C10.2727 5.79733 10.758 5.718 11.234 5.718C12.186 5.718 12.942 5.97 13.502 6.474C14.0713 6.96867 14.356 7.664 14.356 8.56C14.356 10.1747 13.3293 11.7427 11.276 13.264Z" fill="white"/>
</svg>
