<svg width="22" height="28" viewBox="0 0 22 28" fill="none" xmlns="http://www.w3.org/2000/svg">
<path d="M11 21C16.5228 21 21 16.5228 21 11C21 5.47715 16.5228 1 11 1C5.47715 1 1 5.47715 1 11C1 16.5228 5.47715 21 11 21Z" stroke="white" stroke-width="2" stroke-linecap="round" stroke-linejoin="round"/>
<path d="M7.21 21.0066L6 27L11 25.0263L16 27L14.79 21" fill="white"/>
<path d="M7.21 21.0066L6 27L11 25.0263L16 27L14.79 21" stroke="white" stroke-width="2" stroke-linecap="round" stroke-linejoin="round"/>
<path d="M8.784 8.14V6.236C9.47467 5.89067 10.17 5.718 10.87 5.718C11.8593 5.718 12.6433 5.956 13.222 6.432C13.8007 6.89867 14.09 7.51 14.09 8.266C14.09 9.302 13.6187 10.016 12.676 10.408C13.74 10.66 14.272 11.3507 14.272 12.48C14.272 13.264 13.9733 13.894 13.376 14.37C12.788 14.8367 11.962 15.07 10.898 15.07C9.89933 15.07 9.07333 14.9113 8.42 14.594V12.634C9.16667 13.0447 9.93667 13.25 10.73 13.25C11.1873 13.25 11.542 13.152 11.794 12.956C12.0553 12.76 12.186 12.5127 12.186 12.214C12.186 11.5327 11.556 11.192 10.296 11.192H9.806V9.512H10.296C10.7907 9.512 11.1967 9.428 11.514 9.26C11.8313 9.092 11.99 8.84 11.99 8.504C11.99 7.86 11.57 7.538 10.73 7.538C10.086 7.538 9.43733 7.73867 8.784 8.14Z" fill="white"/>
</svg>
