<svg width="22" height="28" viewBox="0 0 22 28" fill="none" xmlns="http://www.w3.org/2000/svg">
<path d="M11 21C16.5228 21 21 16.5228 21 11C21 5.47715 16.5228 1 11 1C5.47715 1 1 5.47715 1 11C1 16.5228 5.47715 21 11 21Z" stroke="white" stroke-width="2" stroke-linecap="round" stroke-linejoin="round"/>
<path d="M7.21 21.0066L6 27L11 25.0263L16 27L14.79 21" fill="white"/>
<path d="M7.21 21.0066L6 27L11 25.0263L16 27L14.79 21" stroke="white" stroke-width="2" stroke-linecap="round" stroke-linejoin="round"/>
<path d="M9.422 11.318H11.438V7.174L9.422 11.318ZM14.588 11.318V13.054H13.468V15H11.438V13.054H7.42V11.318L10.22 5.816H13.468V11.318H14.588Z" fill="white"/>
</svg>
