<svg width="32" height="32" viewBox="0 0 32 32" fill="none" xmlns="http://www.w3.org/2000/svg">
<path d="M31.0625 2.30957H26.9561C26.9709 1.85474 26.9792 1.39722 26.9792 0.9375C26.9792 0.419678 26.5593 0 26.0417 0H5.95825C5.44067 0 5.02075 0.419678 5.02075 0.9375C5.02075 1.39722 5.02905 1.85474 5.04395 2.30957H0.9375C0.419678 2.30957 0 2.72925 0 3.24707C0 7.44775 1.0979 11.4109 3.09131 14.4067C5.06177 17.3684 7.68652 19.0671 10.522 19.2324C11.1648 19.9319 11.8442 20.5022 12.552 20.9373V25.104H10.9792C9.07788 25.104 7.53125 26.6509 7.53125 28.552V30.1248H7.4646C6.94678 30.1248 6.5271 30.5447 6.5271 31.0623C6.5271 31.5801 6.94678 31.9998 7.4646 31.9998H24.5354C25.0532 31.9998 25.4729 31.5801 25.4729 31.0623C25.4729 30.5447 25.0532 30.1248 24.5354 30.1248H24.4688V28.552C24.4688 26.6509 22.9221 25.104 21.0208 25.104H19.448V20.9373C20.1558 20.5024 20.8354 19.9319 21.4783 19.2324C24.3135 19.0671 26.9382 17.3684 28.9089 14.4067C30.9023 11.4109 32 7.44775 32 3.24707C32 2.72925 31.5803 2.30957 31.0625 2.30957ZM4.65234 13.3682C3.00806 10.8972 2.04199 7.66528 1.89478 4.18457H5.14868C5.48682 8.46338 6.49121 12.4185 8.06104 15.5579C8.31104 16.0579 8.57251 16.5303 8.84375 16.9751C7.28442 16.3862 5.84131 15.1553 4.65234 13.3682ZM22.5938 28.552V30.125H9.40625V28.552C9.40625 27.6848 10.1118 26.979 10.9792 26.979H21.0208C21.8882 26.979 22.5938 27.6848 22.5938 28.552ZM17.573 25.104H14.427V21.752C14.9424 21.8877 15.4675 21.9583 16 21.9583C16.5325 21.9583 17.0576 21.8877 17.573 21.752V25.104ZM18.1536 19.5215C18.1113 19.5388 18.0708 19.5598 18.032 19.583C17.3694 19.9126 16.6885 20.0833 16 20.0833C15.3118 20.0833 14.6311 19.9126 13.9688 19.5835C13.9294 19.5598 13.8887 19.5388 13.8459 19.521C13.1108 19.1323 12.3997 18.5454 11.7271 17.7742C11.6917 17.7236 11.6519 17.677 11.6077 17.6345C10.9399 16.8418 10.3118 15.8667 9.73804 14.7192C8.01514 11.2737 7.02002 6.74316 6.90674 1.875H25.0933C24.9797 6.74316 23.9846 11.2739 22.262 14.7192C21.6882 15.8667 21.0601 16.8418 20.3926 17.6345C20.3481 17.677 20.3079 17.7239 20.2727 17.7744C19.6001 18.5459 18.8887 19.1326 18.1536 19.5215ZM27.3477 13.3682C26.1587 15.1553 24.7156 16.3862 23.1562 16.9751C23.4275 16.5303 23.689 16.0579 23.939 15.5579C25.5088 12.4185 26.5129 8.46338 26.8513 4.18457H30.1052C29.958 7.66528 28.9919 10.8972 27.3477 13.3682Z" fill="white"/>
<path d="M13.14 9.428V7.342L15.716 5.844H17.48V15H15.45V8.042L13.14 9.428Z" fill="white"/>
</svg>
