<svg width="22" height="28" viewBox="0 0 22 28" fill="none" xmlns="http://www.w3.org/2000/svg">
<path d="M11 21C16.5228 21 21 16.5228 21 11C21 5.47715 16.5228 1 11 1C5.47715 1 1 5.47715 1 11C1 16.5228 5.47715 21 11 21Z" stroke="white" stroke-width="2" stroke-linecap="round" stroke-linejoin="round"/>
<path d="M7.21 21.0066L6 27L11 25.0263L16 27L14.79 21" fill="white"/>
<path d="M7.21 21.0066L6 27L11 25.0263L16 27L14.79 21" stroke="white" stroke-width="2" stroke-linecap="round" stroke-linejoin="round"/>
<path d="M10.87 7.552V9.106C11.0753 9.078 11.2807 9.064 11.486 9.064C12.4847 9.064 13.25 9.32067 13.782 9.834C14.314 10.3473 14.58 11.0473 14.58 11.934C14.58 12.886 14.2627 13.6513 13.628 14.23C13.0027 14.7993 12.1113 15.084 10.954 15.084C9.93667 15.084 9.11533 14.9207 8.49 14.594V12.662C9.12467 13.054 9.834 13.25 10.618 13.25C11.8687 13.25 12.494 12.802 12.494 11.906C12.494 11.57 12.3633 11.304 12.102 11.108C11.85 10.912 11.4673 10.814 10.954 10.814C10.2353 10.814 9.54467 10.968 8.882 11.276V5.816H14.02V7.552H10.87Z" fill="white"/>
</svg>
