<svg width="64" height="64" viewBox="0 0 64 64" fill="none" xmlns="http://www.w3.org/2000/svg">
<rect x="5" y="42" width="16" height="18" stroke="#F1921F" stroke-width="3" stroke-linejoin="round"/>
<rect x="21" y="30" width="22" height="30" stroke="#F1921F" stroke-width="3" stroke-linejoin="round"/>
<rect x="43" y="46" width="16" height="14" stroke="#F1921F" stroke-width="3" stroke-linejoin="round"/>
<path d="M29.14 40.428V38.342L31.716 36.844H33.48V46H31.45V39.042L29.14 40.428Z" fill="#F1921F"/>
<path d="M12.8351 52.76H15.1551V54H10.7951V52.87C11.5151 52.3767 12.1485 51.83 12.6951 51.23C13.2485 50.63 13.5251 50.1 13.5251 49.64C13.5251 49.36 13.4418 49.14 13.2751 48.98C13.1085 48.8133 12.8551 48.73 12.5151 48.73C11.9485 48.73 11.4118 48.94 10.9051 49.36V47.95C11.1251 47.79 11.4118 47.6533 11.7651 47.54C12.1185 47.4267 12.4651 47.37 12.8051 47.37C13.4851 47.37 14.0251 47.55 14.4251 47.91C14.8318 48.2633 15.0351 48.76 15.0351 49.4C15.0351 50.5533 14.3018 51.6733 12.8351 52.76Z" fill="#F1921F"/>
<path d="M48.643 51.1V49.74C49.1363 49.4933 49.633 49.37 50.133 49.37C50.8397 49.37 51.3997 49.54 51.813 49.88C52.2263 50.2133 52.433 50.65 52.433 51.19C52.433 51.93 52.0963 52.44 51.423 52.72C52.183 52.9 52.563 53.3933 52.563 54.2C52.563 54.76 52.3497 55.21 51.923 55.55C51.503 55.8833 50.913 56.05 50.153 56.05C49.4397 56.05 48.8497 55.9367 48.383 55.71V54.31C48.9163 54.6033 49.4663 54.75 50.033 54.75C50.3597 54.75 50.613 54.68 50.793 54.54C50.9797 54.4 51.073 54.2233 51.073 54.01C51.073 53.5233 50.623 53.28 49.723 53.28H49.373V52.08H49.723C50.0763 52.08 50.3663 52.02 50.593 51.9C50.8197 51.78 50.933 51.6 50.933 51.36C50.933 50.9 50.633 50.67 50.033 50.67C49.573 50.67 49.1097 50.8133 48.643 51.1Z" fill="#F1921F"/>
<path d="M32 7L34.781 12.266L41 13.1157L36.5 17.2124L37.562 23L32 20.266L26.438 23L27.5 17.2124L23 13.1157L29.219 12.266L32 7Z" stroke="#F1921F" stroke-width="3" stroke-linecap="round" stroke-linejoin="round"/>
</svg>
